<mxfile host="65bd71144e">
    <diagram id="uPfCsLvR5dmijBgLytaU" name="第 1 页">
        <mxGraphModel dx="574" dy="614" grid="1" gridSize="10" guides="1" tooltips="1" connect="1" arrows="1" fold="1" page="1" pageScale="1" pageWidth="1200" pageHeight="1920" math="0" shadow="0">
            <root>
                <mxCell id="0"/>
                <mxCell id="1" parent="0"/>
                <mxCell id="4" value="" style="edgeStyle=none;html=1;" edge="1" parent="1" source="2" target="3">
                    <mxGeometry relative="1" as="geometry"/>
                </mxCell>
                <mxCell id="2" value="&lt;span id=&quot;boardmix-app-data-meta&quot;&gt;&lt;/span&gt;&lt;div style=&quot;line-height: 1.3; font-family: &amp;quot;Source Han Sans CN&amp;quot;; vertical-align: middle; color: rgb(25, 25, 26); font-size: 14px;&quot;&gt;&lt;p&gt;textbox 渲染流程&lt;/p&gt;&lt;/div&gt;" style="rounded=0;whiteSpace=wrap;html=1;" vertex="1" parent="1">
                    <mxGeometry x="440" y="70" width="120" height="60" as="geometry"/>
                </mxCell>
                <mxCell id="6" value="" style="edgeStyle=none;html=1;" edge="1" parent="1" source="3" target="5">
                    <mxGeometry relative="1" as="geometry"/>
                </mxCell>
                <mxCell id="12" style="edgeStyle=none;html=1;exitX=1;exitY=0.5;exitDx=0;exitDy=0;entryX=1;entryY=0.5;entryDx=0;entryDy=0;" edge="1" parent="1" source="3" target="5">
                    <mxGeometry relative="1" as="geometry">
                        <Array as="points">
                            <mxPoint x="630" y="310"/>
                        </Array>
                    </mxGeometry>
                </mxCell>
                <mxCell id="13" value="&lt;font style=&quot;font-size: 15px;&quot;&gt;extends&lt;/font&gt;" style="edgeLabel;html=1;align=center;verticalAlign=middle;resizable=0;points=[];" vertex="1" connectable="0" parent="12">
                    <mxGeometry x="-0.3462" y="3" relative="1" as="geometry">
                        <mxPoint x="22" y="26" as="offset"/>
                    </mxGeometry>
                </mxCell>
                <mxCell id="3" value="&lt;span id=&quot;boardmix-app-data-meta&quot;&gt;&lt;/span&gt;&lt;div style=&quot;line-height: 1.3; font-family: &amp;quot;Source Han Sans CN&amp;quot;; vertical-align: middle; color: rgb(25, 25, 26); font-size: 14px;&quot;&gt;&lt;p&gt;&lt;span id=&quot;boardmix-app-data-meta&quot;&gt;&lt;/span&gt;&lt;/p&gt;&lt;div style=&quot;line-height: 1.3; vertical-align: middle; color: rgb(25, 25, 26);&quot;&gt;&lt;p&gt;Textbox render&lt;/p&gt;&lt;/div&gt;&lt;/div&gt;" style="rounded=0;whiteSpace=wrap;html=1;" vertex="1" parent="1">
                    <mxGeometry x="440" y="210" width="120" height="60" as="geometry"/>
                </mxCell>
                <mxCell id="8" value="" style="edgeStyle=none;html=1;" edge="1" parent="1" source="5" target="7">
                    <mxGeometry relative="1" as="geometry"/>
                </mxCell>
                <mxCell id="5" value="&lt;span id=&quot;boardmix-app-data-meta&quot;&gt;&lt;/span&gt;&lt;div style=&quot;line-height: 1.3; font-family: &amp;quot;Source Han Sans CN&amp;quot;; vertical-align: middle; color: rgb(25, 25, 26); font-size: 14px;&quot;&gt;&lt;p&gt;IText render&lt;/p&gt;&lt;/div&gt;" style="whiteSpace=wrap;html=1;rounded=0;" vertex="1" parent="1">
                    <mxGeometry x="440" y="350" width="120" height="60" as="geometry"/>
                </mxCell>
                <mxCell id="10" value="" style="edgeStyle=none;html=1;" edge="1" parent="1" source="7" target="9">
                    <mxGeometry relative="1" as="geometry"/>
                </mxCell>
                <mxCell id="7" value="&lt;span id=&quot;boardmix-app-data-meta&quot;&gt;&lt;/span&gt;&lt;div style=&quot;line-height: 1.3; font-family: &amp;quot;Source Han Sans CN&amp;quot;; vertical-align: middle; color: rgb(25, 25, 26); font-size: 14px;&quot;&gt;&lt;p&gt;super render&lt;/p&gt;&lt;/div&gt;" style="whiteSpace=wrap;html=1;rounded=0;" vertex="1" parent="1">
                    <mxGeometry x="440" y="490" width="120" height="60" as="geometry"/>
                </mxCell>
                <mxCell id="17" value="" style="edgeStyle=none;html=1;" edge="1" parent="1" source="9" target="16">
                    <mxGeometry relative="1" as="geometry"/>
                </mxCell>
                <mxCell id="9" value="&lt;span id=&quot;boardmix-app-data-meta&quot;&gt;&lt;/span&gt;&lt;div style=&quot;line-height: 1.3; font-family: &amp;quot;Source Han Sans CN&amp;quot;; vertical-align: middle; color: rgb(25, 25, 26); font-size: 14px;&quot;&gt;&lt;p&gt;Text render&lt;/p&gt;&lt;/div&gt;" style="whiteSpace=wrap;html=1;rounded=0;" vertex="1" parent="1">
                    <mxGeometry x="440" y="630" width="120" height="60" as="geometry"/>
                </mxCell>
                <mxCell id="14" style="edgeStyle=none;html=1;exitX=1;exitY=0.5;exitDx=0;exitDy=0;entryX=1;entryY=0.5;entryDx=0;entryDy=0;" edge="1" parent="1" source="5" target="9">
                    <mxGeometry relative="1" as="geometry">
                        <mxPoint x="600" y="400" as="sourcePoint"/>
                        <mxPoint x="600" y="540" as="targetPoint"/>
                        <Array as="points">
                            <mxPoint x="690" y="530"/>
                        </Array>
                    </mxGeometry>
                </mxCell>
                <mxCell id="15" value="&lt;font style=&quot;font-size: 15px;&quot;&gt;extends&lt;/font&gt;" style="edgeLabel;html=1;align=center;verticalAlign=middle;resizable=0;points=[];" vertex="1" connectable="0" parent="14">
                    <mxGeometry x="-0.3462" y="3" relative="1" as="geometry">
                        <mxPoint x="46" y="58" as="offset"/>
                    </mxGeometry>
                </mxCell>
                <mxCell id="19" value="" style="edgeStyle=none;html=1;" edge="1" parent="1" source="16" target="18">
                    <mxGeometry relative="1" as="geometry"/>
                </mxCell>
                <mxCell id="16" value="Object render" style="whiteSpace=wrap;html=1;rounded=0;" vertex="1" parent="1">
                    <mxGeometry x="440" y="770" width="120" height="60" as="geometry"/>
                </mxCell>
                <mxCell id="21" value="" style="edgeStyle=none;html=1;" edge="1" parent="1" source="18" target="20">
                    <mxGeometry relative="1" as="geometry"/>
                </mxCell>
                <mxCell id="18" value="_setupCompositeOperation" style="whiteSpace=wrap;html=1;rounded=0;" vertex="1" parent="1">
                    <mxGeometry x="440" y="910" width="120" height="60" as="geometry"/>
                </mxCell>
                <mxCell id="23" value="" style="edgeStyle=none;html=1;" edge="1" parent="1" source="20" target="22">
                    <mxGeometry relative="1" as="geometry"/>
                </mxCell>
                <mxCell id="20" value="drawSelectionBackground" style="whiteSpace=wrap;html=1;rounded=0;" vertex="1" parent="1">
                    <mxGeometry x="440" y="1050" width="120" height="60" as="geometry"/>
                </mxCell>
                <mxCell id="25" value="" style="edgeStyle=none;html=1;" edge="1" parent="1" source="22" target="24">
                    <mxGeometry relative="1" as="geometry"/>
                </mxCell>
                <mxCell id="22" value="transform" style="whiteSpace=wrap;html=1;rounded=0;" vertex="1" parent="1">
                    <mxGeometry x="440" y="1190" width="120" height="60" as="geometry"/>
                </mxCell>
                <mxCell id="27" value="" style="edgeStyle=none;html=1;" edge="1" parent="1" source="24" target="26">
                    <mxGeometry relative="1" as="geometry"/>
                </mxCell>
                <mxCell id="24" value="_setOpacity" style="whiteSpace=wrap;html=1;rounded=0;" vertex="1" parent="1">
                    <mxGeometry x="440" y="1330" width="120" height="60" as="geometry"/>
                </mxCell>
                <mxCell id="29" value="" style="edgeStyle=none;html=1;" edge="1" parent="1" source="26" target="28">
                    <mxGeometry relative="1" as="geometry"/>
                </mxCell>
                <mxCell id="26" value="_setShadow" style="whiteSpace=wrap;html=1;rounded=0;" vertex="1" parent="1">
                    <mxGeometry x="440" y="1470" width="120" height="60" as="geometry"/>
                </mxCell>
                <mxCell id="28" value="IText renderCursorOrSelection" style="whiteSpace=wrap;html=1;rounded=0;" vertex="1" parent="1">
                    <mxGeometry x="420" y="1610" width="160" height="60" as="geometry"/>
                </mxCell>
            </root>
        </mxGraphModel>
    </diagram>
</mxfile>
